<?xml version="1.0" encoding="utf-8"?>
<!-- Generator: Adobe Illustrator 19.0.0, SVG Export Plug-In . SVG Version: 6.00 Build 0)  -->
<svg version="1.1" xmlns="http://www.w3.org/2000/svg" xmlns:xlink="http://www.w3.org/1999/xlink" x="0px" y="0px"
	 viewBox="0 0 500 500" style="enable-background:new 0 0 500 500;" xml:space="preserve">
<style type="text/css">
	.st0{fill:#4ABCE7;}
	.st1{fill:#2E7796;}
	.st2{fill:#143144;}
	.st3{fill:#3382A4;}
	.st4{fill:#FFFFFF;}
</style>
<g id="Layer_2">
	<g>
		<path class="st0" d="M252.9,22.9c3.7,9.1,7.2,17.5,10.6,25.9c36.7,89.7,73.4,179.4,110.2,269.1c14.5,35.3,28.9,70.6,43.4,105.9
			c0.9,2.1,0.2,2.5-1.6,3.1c-26.6,8.2-53.2,16.6-79.8,24.9c-26.9,8.4-53.8,16.7-80.7,25.2c-2,0.6-3.6,0.1-5.3-0.5
			c-21.7-6.9-43.4-13.8-65.1-20.6c-30.2-9.6-60.4-19.1-90.5-28.6c-3.6-1.1-3.6-1.2-2.2-4.6c17.4-43.3,34.9-86.6,52.3-129.9
			c30.9-76.8,61.9-153.6,92.8-230.4C242.2,49.4,247.4,36.5,252.9,22.9z"/>
		<path class="st1" d="M335.8,296.3c5,12,9.9,24,14.8,36c10.1,24.6,20.1,49.3,30.3,73.9c1.1,2.6,0.6,3.5-2,4.3
			c-26.3,8.1-52.6,16.3-78.9,24.5c-15.1,4.7-30.3,9.4-45.4,14.2c-1.5,0.5-2.7,0.1-3.9-0.3c-18.9-6-37.8-12-56.7-18
			c-21.6-6.8-43.1-13.7-64.7-20.4c-2.7-0.8-3.1-1.7-2-4.3c13-31.9,25.9-63.9,38.8-95.8c2.3-5.6,4.5-11.3,6.7-16.9
			c5.9,3.4,12.2,6,18.3,8.8c10.2,4.8,20.4,9.5,30.6,14.2c10.1,4.7,20.2,9.4,30.3,14.1c1.6,0.8,3.1,0.7,4.7,0
			c16.2-7.2,32.4-14.3,48.7-21.5c9.2-4.1,18.4-8.3,27.7-12.1C333.9,296.4,334.7,295.8,335.8,296.3z"/>
		<path class="st2" d="M335.8,296.3c-15.7,7-31.5,13.9-47.2,20.9c-10.7,4.7-21.4,9.4-32.1,14.2c-1.6,0.7-2.7,0.8-4.3,0
			c-25.8-12-51.6-24-77.4-35.9c-0.9-0.4-2.1-0.7-2.1-2.1c8.4-20.8,16.7-41.5,25.1-62.3c2.1-0.9,3.5,0.6,5,1.5
			c7.9,4.4,15.7,8.8,23.6,13.2c8.4,4.8,16.9,9.5,25.3,14.3c1.7,1,3.2,1,4.9,0.1c14.5-7.8,29.3-15.2,43.8-23c2.3-1.2,4.6-2.4,7-3.6
			c0.8-0.4,1.7-1,2.7-0.3c8.5,20.7,17,41.3,25.5,62C335.7,295.7,335.7,296,335.8,296.3z"/>
		<path class="st2" d="M208.8,203.7c14.6-36.4,29.3-72.7,43.9-109.1c1.1,0,1,0.9,1.3,1.5c14.9,36.5,29.9,72.9,44.8,109.4
			c0.1,0.4,0.2,0.7,0.3,1.1c0.2,1.2-0.8,1.4-1.5,1.8c-12.1,7-24.3,13.7-36.5,20.6c-0.3,0.2-0.7,0.3-1,0.5c-4.1,3.7-7.8,2.7-12.1-0.1
			c-12.1-8-24.9-15-37.2-22.7C209.7,206,208.2,205.5,208.8,203.7z"/>
		<path class="st3" d="M208.8,203.7c0,1,0.7,1.5,1.5,1.9c14.1,8.5,28.2,17,42.3,25.5c0.9,0.6,1.6,1,2.8,0.3
			c14.4-8.2,28.8-16.3,43.3-24.5c0.2-0.1,0.3-0.3,0.4-0.4c3.7,8.9,7.4,17.9,11,26.8c-5.6,2-10.6,5.2-15.8,7.9
			c-12.3,6.3-24.6,12.7-36.8,19.3c-2.4,1.3-4.3,1.2-6.7-0.1c-16.3-9.3-32.7-18.5-49.1-27.7c-1.2-0.7-2.4-1.7-4-1.7
			C201.5,221.9,205.2,212.8,208.8,203.7z"/>
	</g>
</g>
<g id="Layer_1">
	<path class="st4" d="M313.5,137.4"/>
</g>
</svg>
