<?xml version="1.0" encoding="utf-8"?>
<!-- Generator: Adobe Illustrator 19.0.0, SVG Export Plug-In . SVG Version: 6.00 Build 0)  -->
<svg version="1.1" id="Layer_1" xmlns="http://www.w3.org/2000/svg" xmlns:xlink="http://www.w3.org/1999/xlink" x="0px" y="0px"
	 viewBox="0 0 500 500" style="enable-background:new 0 0 500 500;" xml:space="preserve">
<style type="text/css">
	.st0{fill:#2B6C77;}
	.st1{fill:#4ABCE7;}
	.st2{fill:#2E7796;}
	.st3{fill:#143144;}
	.st4{fill:#3382A4;}
</style>
<rect class="st0" width="500" height="500"/>
<g>
	<path class="st1" d="M249.3,54.7c3.2,7.8,6.2,15,9.1,22.3c31.6,77.2,63.2,154.4,94.8,231.7c12.4,30.4,24.9,60.8,37.4,91.2
		c0.7,1.8,0.2,2.2-1.4,2.7c-22.9,7.1-45.8,14.3-68.7,21.4c-23.1,7.2-46.3,14.4-69.4,21.7c-1.7,0.5-3.1,0.1-4.6-0.4
		c-18.7-5.9-37.3-11.8-56-17.8c-26-8.2-52-16.4-77.9-24.6c-3.1-1-3.1-1-1.9-4c15-37.3,30-74.5,45-111.8
		c26.6-66.1,53.3-132.2,79.9-198.3C240.1,77.6,244.6,66.4,249.3,54.7z"/>
	<path class="st2" d="M320.7,290.1c4.3,10.3,8.5,20.6,12.8,31c8.7,21.2,17.3,42.4,26.1,63.6c0.9,2.3,0.5,3-1.7,3.7
		c-22.7,7-45.3,14-68,21.1c-13,4.1-26.1,8.1-39.1,12.2c-1.3,0.4-2.3,0.1-3.4-0.2c-16.3-5.1-32.5-10.3-48.8-15.5
		c-18.6-5.9-37.1-11.8-55.7-17.5c-2.3-0.7-2.7-1.4-1.8-3.7c11.2-27.5,22.3-55,33.4-82.5c2-4.8,3.9-9.7,5.8-14.6
		c5.1,2.9,10.5,5.1,15.8,7.6c8.8,4.1,17.5,8.2,26.3,12.2c8.7,4,17.4,8.1,26.1,12.1c1.4,0.6,2.6,0.6,4.1,0
		c14-6.2,27.9-12.3,41.9-18.5c7.9-3.5,15.8-7.1,23.8-10.5C319.1,290.3,319.8,289.7,320.7,290.1z"/>
	<path class="st3" d="M320.7,290.1c-13.6,6-27.1,12-40.7,18c-9.2,4.1-18.5,8.1-27.6,12.2c-1.3,0.6-2.3,0.7-3.7,0
		c-22.2-10.3-44.4-20.6-66.6-30.9c-0.8-0.4-1.8-0.6-1.8-1.8c7.2-17.9,14.4-35.7,21.6-53.6c1.8-0.8,3,0.5,4.3,1.3
		c6.8,3.8,13.5,7.6,20.3,11.4c7.3,4.1,14.6,8.2,21.8,12.3c1.5,0.8,2.8,0.9,4.2,0.1c12.5-6.7,25.2-13.1,37.7-19.8c2-1.1,4-2.1,6-3.1
		c0.7-0.4,1.5-0.9,2.3-0.2c7.3,17.8,14.6,35.6,21.9,53.4C320.6,289.6,320.6,289.8,320.7,290.1z"/>
	<path class="st3" d="M211.4,210.4c12.6-31.3,25.2-62.6,37.8-93.9c0.9,0,0.9,0.8,1.1,1.3c12.9,31.4,25.7,62.8,38.6,94.2
		c0.1,0.3,0.2,0.6,0.3,1c0.2,1-0.7,1.2-1.3,1.6c-10.4,6-20.9,11.8-31.4,17.7c-0.3,0.2-0.6,0.2-0.9,0.5c-3.5,3.2-6.7,2.4-10.4-0.1
		c-10.5-6.9-21.5-12.9-32-19.6C212.1,212.4,210.9,212,211.4,210.4z"/>
	<path class="st4" d="M211.4,210.4c0,0.9,0.6,1.3,1.3,1.7c12.1,7.3,24.3,14.6,36.4,22c0.8,0.5,1.4,0.9,2.5,0.3
		c12.4-7.1,24.8-14,37.3-21.1c0.1-0.1,0.2-0.2,0.3-0.4c3.2,7.7,6.3,15.4,9.5,23.1c-4.8,1.7-9.1,4.5-13.6,6.8
		c-10.6,5.4-21.2,11-31.7,16.6c-2.1,1.1-3.7,1.1-5.7-0.1c-14.1-8-28.2-15.9-42.3-23.9c-1.1-0.6-2.1-1.4-3.4-1.5
		C205,226.1,208.2,218.2,211.4,210.4z"/>
</g>
</svg>
