<?xml version="1.0" encoding="utf-8"?>
<!-- Generator: Adobe Illustrator 19.0.0, SVG Export Plug-In . SVG Version: 6.00 Build 0)  -->
<svg version="1.1" id="Layer_1" xmlns="http://www.w3.org/2000/svg" xmlns:xlink="http://www.w3.org/1999/xlink" x="0px" y="0px"
	 viewBox="0 0 500 500" style="enable-background:new 0 0 500 500;" xml:space="preserve">
<style type="text/css">
	.st0{fill:#0056B6;}
	.st1{fill:#005FC9;}
	.st2{fill:#004491;}
	.st3{fill:#0058BC;}
	.st4{fill:#0054B2;}
	.st5{fill:#00499B;}
	.st6{fill:#004DA4;}
	.st7{fill:#0052AF;}
	.st8{fill:#004DA5;}
	.st9{fill:#003B7D;}
	.st10{fill:#004492;}
	.st11{fill:#0053B0;}
	.st12{fill:#F9F9F9;}
	.st13{fill:#0058BD;}
	.st14{fill:#033166;}
	.st15{fill:#002F63;}
	.st16{fill:#022F62;}
</style>
<g id="XMLID_1_">
	<path id="XMLID_65_" class="st0" d="M383.3,504c-125.6,0-251.2-0.1-376.8,0.3c-9.3,0-11.2-1.8-11.1-11.1
		C-4.1,445.1-4.4,397-4.4,349c4.3-3.7,9.4-3.7,14.5-2.7c20.8,4.2,41.5,3.2,62.1-1.3c11.1-2.4,21.6-2.5,26.6,10.7
		c-0.1,17.4-10.1,31.9-15,47.9c-1.5,4.8-3.5,9.6-5.1,14.5c-1.5,4.5-0.2,9.4,4.8,9.2c21.1-0.5,42.6,5.8,63.1-4.1
		c7.2-5.6,9.5-14.1,13-21.9c2.7-6,5.2-12.2,11.3-15.7c18.9-13.3,37.7-26.7,58.9-36.3c14.2-6.5,19.3-5.6,25.8,7
		c-0.3,3.7-1.9,6.7-4.6,9.2c-5.1,3.2-5.6,8.1-5.6,13.5c0.1,11.9,0.3,23.8-0.1,35.7c-0.3,8.2,2.6,13.1,11.1,13.2
		c48.6,0.6,97.1,0.8,145.7-0.1c3.7-0.1,7-1.7,10.1-3.6c3.4-1.4,6.9-1.6,10.4-0.4c8.7,4.4,8.5,11.9,6.8,19.9
		C423.4,470.8,407.3,490.4,383.3,504z"/>
	<path id="XMLID_64_" class="st1" d="M383.3,504c7.3-9.1,14.3-18.3,22.7-26.7c13.8-13.6,19.8-31.1,17.6-50.8
		c-5.1-4.5-8.8-9.8-11.4-16.3c-14.5-36.9-29.5-73.6-44-110.4c-3-7.6-6.8-15.3-1.7-23.6c15.9-11.8,34.7-15.1,53.6-17
		c14.4-1.5,28.5-4.3,42.5-7.4c10-2.2,18.5-8.3,25.2-16.8c3.9-4.9,8.1-11.5,16.4-7c0,88.4-0.2,176.8,0.3,265.2
		c0,9.3-1.8,11.3-11.1,11.1C456.7,503.7,420,504,383.3,504z"/>
	<path id="XMLID_63_" class="st2" d="M-4.4,128.8c0-34.1,0-68.2,0-102.4c9.6-2.9,14.4,4.4,18.9,10.2c6.8,8.6,14.2,12.3,25.4,10
		c20.2-4.2,36.7,3,49.1,19c15.1,19.5,31.1,38.4,46.7,57.5c19.2,23.4,15,50.2-11.9,63.5c-22.5,11.1-34.6,28.2-42.2,50.4
		c-1.2,3.4-2.5,6.9-4.7,9.7c-14.4,17.8-25.2,37.4-32.1,59.4c-4.4,14.1-16.4,20.7-30.6,22.9c-6.8,1.1-13.4,0.7-18.6-4.8
		c0-8.3,0-16.5,0-24.8c4.8-5.5,8.1-11.7,10.4-18.7c6-18.7,14.4-35.9,27-51.6c19.2-23.9,12-62-13.8-78.7C10,144.4,1,138.6-4.4,128.8z
		"/>
	<path id="XMLID_62_" class="st3" d="M504.3,228c-11,3.2-12.2,15.9-21.1,21.7c-13.6,8.7-28.7,11.4-43.9,12.9
		c-24.7,2.4-48.4,9.1-72.3,15.3c-8.5-0.5-10.5-7.7-12.9-13.6c-22.6-55.9-44.9-111.9-67.2-167.9c-2.3-5.7-4.6-11.7-0.8-17.8
		c5.3-4.4,11.3-3.4,15.8,0.2c12.8,10.4,27.6,10,42.7,9.6c28.7-0.8,46.2,14.6,51.4,42.6c3.1,16.5-0.6,33,2.6,49.3
		c3.5,18.1,7,37.4,27.2,43.3c19.1,5.6,34.7-5.7,49-17.2c5.2-4.2,9.2-9.8,13.8-14.7c4.1-4.4,8.2-9.8,15.7-7
		C504.3,199.1,504.3,213.5,504.3,228z"/>
	<path id="XMLID_61_" class="st4" d="M504.3,184.6c-5.1,2.9-8.9,7-12.1,11.8c-12.9,19.9-32.4,29.8-54.4,35.5
		c-12,3.1-28-5.2-35.6-19.4c-9.1-17.1-11.7-35.5-10.8-55c0.9-20.5,0.6-41.2-18.2-56.2c-6.6-5.3-13.3-8.3-21.1-7.5
		c-20.9,2.1-41.3,3.3-57.8-13.4c-1.4-1.4-4.9-0.8-7.5-1.2c-2.6,0.6-4.4-0.6-5.9-2.5c-7.1-12-15.7-23-22.6-35.1
		c-12.6-21.9-32.7-30.4-56.3-33.1c-12.5-1.4-18.6,2.9-16.9,15.3c3,21.8,7.3,43.5,20.3,62.2c1.2,9.1-1.9,16.1-10.3,20.3
		c-8.3,1.1-12.3-3.9-14.6-10.7c-10.1-30.1-24-57.7-48.7-78.9c-6-5.1-12.1-12-6.1-21.4c48.6,0,97.2,0,145.8,0
		c7.2,3.6,12.2,9.3,16,16.3c4.2,7.7,8.2,15.5,12.6,23.1c7.8,13.7,18.2,21.4,35.1,19.8c33.5-3.2,55.4,12.7,70.4,42.2
		c9.8,19.2,18.9,37.7,14.9,60.1c-1.3,7.1,0.4,14.4,3,21.3c7.7,20.3,25.4,24.7,41.8,10.2c7.8-6.9,12.5-16.4,19.5-24
		c5-5.4,9.7-13.1,19.2-7.6C504.3,166,504.3,175.3,504.3,184.6z"/>
	<path id="XMLID_60_" class="st5" d="M-4.4,324.2c34.9-0.1,37.5-5.6,50.6-37.4c12.9-31.3,32.7-59.8,49.9-89.2
		c4.4-7.5,13-9.6,20.4-13c27.9-13,33.4-37,13-59.5c-16.5-18.3-31.4-37.7-46.4-57.1C72.7,54.4,58.9,47.7,42.6,52.2
		c-15.5,4.3-25.6,0.6-33.6-13.1C6,34,0.1,30.6-4.4,26.4c0-9.3,0-18.6,0-27.9C30.7,7.6,66.8,14.3,96.3,37.6
		c9.3,7.3,18.4,14.9,28.2,21.6c24.7,16.9,38.8,40.6,45.3,69.3c1.7,7.7,3.8,14.9,10.7,19.6c-0.9,21.5-7.7,40.6-22.8,56.3
		c-18.8-4.4-44.3,10.6-50.1,31.1c-4.7,16.6-11.4,31.8-21.7,45.6c-6,8-7.9,17.7-10.4,27.2c-7.8,30-55.8,45-79.8,25.2
		C-4.4,330.4-4.4,327.3-4.4,324.2z"/>
	<path id="XMLID_59_" class="st6" d="M504.3,82.2c0,13.4,0,26.9,0,40.3c-18.8,13.6-40.1,10.9-58.4,3.1
		c-20.9-8.9-37.6-25.3-43.7-49.3c-4.9-19.5-16.4-30.3-37.5-33c-21.4-2.7-40-13.2-54-30.5c-4.1-5.1-10-9.8-4.9-17.5
		c62,0,124.1,0,186.1,0c2.9,8.4-3.6,12.2-8.3,16.4c-7.3,6.5-14.8,12.8-19.7,21.5c-9.6,17-4.3,31,14.2,37.3
		C487.1,73.8,497.7,73.4,504.3,82.2z"/>
	<path id="XMLID_58_" class="st7" d="M305.8-4.6c13.6,25.6,36,39.5,63.6,42.8c20.1,2.4,31.2,12,36.4,29.9
		c5.2,17.8,14.9,31.2,28.8,44.2c18.1,16.8,38.1,9.6,57.4,11.6c4,0.4,8.1-0.9,12.2-1.4c0,11.4,0,22.7,0,34.1
		c-13,2.5-15.9,15.3-23.6,23.1c-3.2,3.3-5,7.9-8.1,11.3c-18.7,20.4-45.7,14.9-55.1-10.8c-3.9-10.6-3.7-21.4-2.8-32.1
		c2.3-27-20.8-70.5-44.4-82.8c-13.1-6.8-27.3-5.3-41-4.5c-13.6,0.8-23-4.4-29.4-15.6C290.2,28.7,281,12,271.7-4.6
		C283-4.6,294.4-4.6,305.8-4.6z"/>
	<path id="XMLID_57_" class="st8" d="M-4.4,333.5c20.7,4.9,40.7,4.8,59.7-6.5c8.5-5.1,14.5-11.4,14.8-21.8c0-1-0.1-2.1,0.2-3.1
		c10.2-28.8,27.9-54.1,38.9-82.7c5.8-15.1,25-18.9,39-26.2c8-4.2,8,4.7,8.7,10.1c4.6,4.6,2.3,9.9,0.6,14.4
		c-16.9,44.6-36.1,88.3-52.7,133.1c-1.6,4.3-3.8,8.7-9.9,7.6c-2.7-12-11-9.8-19.3-7.7c-26.8,6.8-53.5,7.2-80-1.7
		C-4.4,343.8-4.4,338.6-4.4,333.5z"/>
	<path id="XMLID_56_" class="st9" d="M-4.4,128.8c17.6,11.7,38.9,18.5,48.4,40.5c9.5,22.1,5.8,51.4-10.6,69
		c-11.6,12.5-17.3,28.3-21.4,44c-2.6,10.1-6.5,15.6-16.4,17.1C-4.4,242.5-4.4,185.6-4.4,128.8z"/>
	<path id="XMLID_55_" class="st8" d="M179,147.5c-6.8,5-10.8,4-12.5-4.9c-1.8-9.5-3.4-19.3-6.8-28.4C153,97,143.9,81.7,128.3,69.8
		C97.3,46,68.1,20.3,27.6,13.3C16.4,11.4,6.2,3.6-4.4-1.5c-0.5-6.1,4.2-2.9,6.2-2.9C23.5-4.7,45.3-4.6,67-4.6
		c15.4,5.7,29.7,13.9,44.5,20.8c29.2,13.5,46.8,37.7,63.3,63.3c3.3,5.1,4.4,11.3,5.9,17.4c2,8.5,5.9,16.3,12.4,22.6
		C192.8,131.1,192.5,142.6,179,147.5z"/>
	<path id="XMLID_54_" class="st10" d="M504.3,82.2c-7.6-1.3-15.2-2.6-22.8-4.1c-34.9-6.5-34.4-34.7-18.6-55.2
		c8.3-10.8,21.8-15.8,28.9-27.6c10.6-2.3,13.2,1.7,12.7,12.4C503.6,32.6,504.3,57.4,504.3,82.2z"/>
	<path id="XMLID_53_" class="st11" d="M190.9,119.4c-10,0.5-11.3-7.4-13.3-14.2c-11.6-39-35.3-66.9-72.2-85.3
		C92.2,13.3,76.3,9,67-4.6c19.6,0,39.3,0,58.9,0c1.1,8.8,6.2,15.3,12.8,20.3c24.8,19,35.9,46.5,45.8,74.6c2.1,5.8,2.4,12.3,10,13.8
		C199.4,110.6,197.6,115.6,190.9,119.4z"/>
	<path id="XMLID_52_" class="st12" d="M283.6,77.3c1.1,0.7,2.1,1.3,3.2,2c26.7,66.2,53.5,132.4,80.2,198.6
		c17.4,44.2,34.8,88.4,52.1,132.7c2,5.1,5.7,9.9,4.6,15.9c-3.1,0.2-6.3,0.3-9.4,0.5c-4.6,3.2-9.9,2.5-15,2.6
		c-44.8,0.1-89.7,0.1-134.5,0c-17.8,0-20.1-1.7-19.1-19.5c0.9-16.1-5-32.9,4.2-48.3c1.2-2,2.3-4,3.5-6c8.5-10.5,20.3-6.1,31-7
		c5.5-0.4,11.1-0.1,16.5,1.1c4.1-0.2,9.4,0.3,6.7-6.4c-18.7-46.7-36-93.8-55-140.3c-0.4-0.9-1.9-0.7-2.8,0.2
		c-19.5,48.3-37.5,97.1-56.8,145.4c-3.1,7.7-5.8,15.4-8.8,23.1c-2.6,6.8-6.5,12.8-12.5,17.2c-3.9,9.4-7.9,18.7-11.8,28.1
		c-1.9,4.6-2.9,10.1-9.6,10c-22.4,5.6-45.1,2.1-67.6,2.1c-11.7,0-6.9-8.9-4.7-14.7c10.4-27.9,21.8-55.5,32.9-83.1
		c31.8-79.6,63.8-159.1,95-238.9c0.9-2.4,1.1-5,2-7.5c1.8-7.8,7.1-13,14.5-14c17.2-2.5,34.5-1.8,51.8-0.4
		C278.3,70.7,281.5,73.5,283.6,77.3z"/>
	<path id="XMLID_51_" class="st13" d="M171.5,389c23.5-64.5,48.6-128.3,74.5-191.9c10.2,4.3,10.4,15.1,13.4,23.1
		c15,39.3,30.9,78.3,45.6,117.8c2.2,6,4.6,11.5,0.6,17.5c-17.4,1.6-34.8,1.2-52.3,0.2c-4.9-8.3-11-7.8-18.2-3
		c-16.5,11.2-35.9,17.5-51.1,30.8C180.5,386.5,176.6,389.3,171.5,389z"/>
	<path id="XMLID_50_" class="st14" d="M211,88c-42.2,106.1-84.4,212.2-126.6,318.3c-2.4,6.1-4.8,12.3-8,20.7c25.7,0,49.7,0,73.8,0
		c-2.6,4.7-6.8,5.8-11.8,5.8c-19.1-0.1-38.2-0.2-57.3,0c-10.5,0.1-12.5-4.3-8.9-13.6C80,399,87.4,378.7,95,358.4
		c11.7-20.5,18-43.3,27-65c12.4-29.7,23.4-60,35-90.1c9.1-17.9,16.6-36.4,22-55.8c6-8.5,9.1-18.2,11.9-28.1
		c1.2-5.1,2.4-10.3,3.6-15.4c4.6-5.5,7.9-11.6,9.4-18.6C207.4,83.1,209.7,84.1,211,88z"/>
	<path id="XMLID_49_" class="st15" d="M249.8,361.7c0.3,17.4,1.2,34.9,0.5,52.3c-0.4,10.4,3.2,12.7,13,12.6
		c50.3-0.3,100.6,0.2,150.9,0.4c-1.9,7.1-7.8,5.6-12.6,5.6c-48.9,0.1-97.9-0.1-146.8,0.4c-10.8,0.1-14.6-3.8-14.2-14.5
		c0.6-14.4,0.2-28.8,0.2-43.3C240.8,368.8,241.2,362.6,249.8,361.7z"/>
	<path id="XMLID_48_" class="st3" d="M211,88c-2.4-0.9-4.8-1.7-7.2-2.6c-4.8,2.1-10.3,2.6-10.9-3.6c-2.2-21.5-15.1-40.3-14.5-62.5
		c0.3-12.9,7.2-17.3,18.4-17.6c36.1-0.9,82.3,39.4,86.8,75.5c-18.5,0-37,0.5-55.5-0.4C218.8,76.5,213.8,79.8,211,88z"/>
	<path id="XMLID_47_" class="st16" d="M305.6,355.5c-17.7-46-35.4-92-52.9-138c-2.6-6.7-4.4-13.6-6.6-20.5c0.8-4,1.1-8.2,6-11.4
		c21.1,54.3,42.1,108.3,63,162.4C319.6,360,311,355.9,305.6,355.5z"/>
</g>
</svg>
